<?xml version="1.0" encoding="UTF-8"?>
<svg width="40px" height="40px" viewBox="0 0 40 40" version="1.1" xmlns="http://www.w3.org/2000/svg" xmlns:xlink="http://www.w3.org/1999/xlink">
    <title>close_out</title>
    <defs>
        <polygon id="path-1" points="5e-05 0 16 0 16 15.9997 5e-05 15.9997"></polygon>
    </defs>
    <g id="close_out" stroke="none" stroke-width="1" fill="none" fill-rule="evenodd">
        <g id="Group-3" transform="translate(12.000000, 12.000000)">
            <mask id="mask-2" fill="white">
                <use xlink:href="#path-1"></use>
            </mask>
            <g id="Clip-2"></g>
            <path d="M15.7993,0.2007 C15.5313,-0.0673 15.0973,-0.0673 14.8293,0.2007 L8.0003,7.0307 L1.1703,0.2007 C0.9033,-0.0673 0.4683,-0.0673 0.2003,0.2007 C-0.0667,0.4687 -0.0667,0.9027 0.2003,1.1707 L7.0303,7.9997 L0.2003,14.8297 C-0.0667,15.0967 -0.0667,15.5317 0.2003,15.7987 C0.3353,15.9327 0.5103,15.9997 0.6853,15.9997 C0.8613,15.9997 1.0363,15.9327 1.1703,15.7987 L8.0003,8.9697 L14.8293,15.7987 C14.9633,15.9327 15.1383,15.9997 15.3143,15.9997 C15.4893,15.9997 15.6653,15.9327 15.7993,15.7987 C16.0673,15.5317 16.0673,15.0967 15.7993,14.8297 L8.9693,7.9997 L15.7993,1.1707 C16.0673,0.9027 16.0673,0.4687 15.7993,0.2007" id="Fill-1" fill="#4E3836" mask="url(#mask-2)"></path>
        </g>
    </g>
</svg>